<?xml version="1.0" encoding="utf-8"?>
<!DOCTYPE svg PUBLIC "-//W3C//DTD SVG 1.1//EN" "http://www.w3.org/Graphics/SVG/1.1/DTD/svg11.dtd">
<svg version="1.1" xmlns="http://www.w3.org/2000/svg" xmlns:xlink="http://www.w3.org/1999/xlink" x="0px" y="0px"
	 width="381px" height="400px" viewBox="0 0 326.617 342.274" enable-background="new 0 0 326.617 342.274"
	 xml:space="preserve">
<path fill-rule="evenodd" clip-rule="evenodd" fill="#AE4635" d="M28.899,0.256L4.043,2.794l9.814,96.097l24.856-2.539
	c20.803-2.125,24.941-14.563,23.442-29.247L57.77,24.163C56.27,9.478,49.702-1.868,28.899,0.256z M46.996,70.007
	c1.3,12.732-2.376,17.203-10.484,18.031l-8.221,0.84L20.203,9.683l8.221-0.839c8.184-0.836,12.617,2.847,13.914,15.542
	L46.996,70.007z"/>
<path fill-rule="evenodd" clip-rule="evenodd" fill="#AE4635" d="M314.337,219.63l-44.105,58.165
	c-5.528,7.29-10.653,11.122-17.423,5.987c-6.769-5.132-4.462-11.102,1.065-18.391l44.106-58.165l-12.281-9.313l-47.032,62.023
	c-5.528,7.29-5.116,19.662,5.604,27.791l8.057,6.109c9.954,7.547,21.732,4.418,27.26-2.871l47.031-62.023L314.337,219.63z"/>
<polygon fill-rule="evenodd" clip-rule="evenodd" fill="#AE4635" points="161.049,25.028 113.186,14.858 111.284,23.806 
	126.963,27.137 108.779,112.715 125.286,116.222 143.47,30.645 159.149,33.976 "/>
<path fill-rule="evenodd" clip-rule="evenodd" fill="#AE4635" d="M181.621,160.171l-41.997,13.738
	c-46.831-27.672-51.039-28.373-104.347-17.378L0,129.924l41.99-13.702c46.867,27.681,51.075,28.382,104.347,17.378L181.621,160.171z
	"/>
<path fill-rule="evenodd" clip-rule="evenodd" fill="#AE4635" d="M235.163,184.699l-33.355,28.95
	c-53.907-7.279-58.057-6.288-102.89,24.578l-42.839-10.748l33.346-28.993c53.942,7.267,58.092,6.276,102.889-24.577L235.163,184.699
	z"/>
<path fill-rule="evenodd" clip-rule="evenodd" fill="#AE4635" d="M193.576,338.687l-44.041,3.588
	c-39.105-37.81-43.035-39.471-97.438-41.186l-28.116-34.087l44.024-3.548c39.139,37.828,43.069,39.488,97.438,41.185
	L193.576,338.687z"/>
</svg>
