<?xml version="1.0" encoding="utf-8"?>
<!DOCTYPE svg PUBLIC "-//W3C//DTD SVG 1.1//EN" "http://www.w3.org/Graphics/SVG/1.1/DTD/svg11.dtd">
<svg version="1.1" xmlns="http://www.w3.org/2000/svg" xmlns:xlink="http://www.w3.org/1999/xlink" x="0px" y="0px"
	 width="179px" height="52px" viewBox="0 0 178.75 52.281" enable-background="new 0 0 178.75 52.281" xml:space="preserve">
<g>
	<path fill-rule="evenodd" clip-rule="evenodd" fill="#FFFFFF" d="M1.97,19.131h4.88c4.1,0,5.14-2.33,5.14-5.21v-8.43
		c0-2.88-1.04-5.21-5.14-5.21H1.97V19.131z M4.98,1.941h1.61c1.61,0,2.4,0.8,2.4,3.29v8.95c0,2.49-0.8,3.29-2.4,3.29H4.98V1.941z
		 M31.02,0.281v14.24c0,1.79-0.34,2.98-2,2.98c-1.67,0-2.01-1.19-2.01-2.98V0.281H24v15.18c0,1.79,1.52,3.67,4.15,3.67h1.98
		c2.44,0,3.9-1.88,3.9-3.67V0.281H31.02z M22.78,0.281h-9.57v1.78h3.13v17.08h3.31V2.061h3.13V0.281z"/>
	<path fill-rule="evenodd" clip-rule="evenodd" fill="#FFFFFF" d="M36,28.592l-7.66,3.989c-9.92-3.83-10.76-3.83-20.68,0L0,28.592
		l7.66-3.98c9.92,3.819,10.76,3.819,20.68,0L36,28.592z M36,38.441l-7.66,3.989c-9.92-3.83-10.76-3.83-20.68,0L0,38.441l7.66-3.979
		c9.92,3.819,10.76,3.819,20.68,0L36,38.441z M36,48.291l-7.66,3.99c-9.92-3.819-10.76-3.819-20.68,0L0,48.291l7.66-3.979
		c9.92,3.82,10.76,3.82,20.68,0L36,48.291z"/>
</g>
<g>
	<path fill="#FFFFFF" d="M59.865,18.813h-1.949c-0.225,0-0.4-0.075-0.55-0.25L50.317,9.99v8.323c0,0.25-0.175,0.5-0.45,0.5h-1.375
		c-0.25,0-0.45-0.225-0.45-0.5V0.717c0-0.25,0.2-0.475,0.475-0.475h1.325c0.25,0,0.475,0.2,0.475,0.475v8.073l7.198-8.323
		c0.15-0.15,0.25-0.225,0.5-0.225h1.8c0.25,0,0.35,0.125,0.35,0.275c0,0.075-0.025,0.175-0.1,0.25l-7.523,8.498l7.523,8.998
		c0.075,0.075,0.125,0.2,0.125,0.3C60.19,18.688,60.09,18.813,59.865,18.813z"/>
	<path fill="#FFFFFF" d="M72.39,18.813h-1.25c-0.275,0-0.475-0.225-0.475-0.5v-0.475c-1.375,0.774-2.5,1.149-3.974,1.149
		c-2.999,0-4.349-1.875-4.349-5.199V5.566c0-0.275,0.225-0.5,0.5-0.5h1.2c0.275,0,0.5,0.225,0.5,0.5v8.223
		c0,2.524,0.85,3.299,2.75,3.299c1.05,0,2.225-0.4,3.374-0.975V5.566c0-0.25,0.225-0.5,0.5-0.5h1.225c0.25,0,0.475,0.225,0.475,0.5
		v12.747C72.865,18.588,72.665,18.813,72.39,18.813z"/>
	<path fill="#FFFFFF" d="M81.291,6.791c-1.15,0-2.199,0.3-3.449,1.05v10.472c0,0.25-0.225,0.5-0.5,0.5h-1.225
		c-0.25,0-0.475-0.225-0.475-0.5V5.566c0-0.275,0.2-0.5,0.475-0.5h1.175c0.275,0,0.475,0.225,0.475,0.5v0.525
		c1.25-0.875,2.399-1.2,3.524-1.2c0.35,0,0.525,0.15,0.525,0.45v1.025C81.816,6.641,81.641,6.791,81.291,6.791z"/>
	<path fill="#FFFFFF" d="M87.592,18.988c-0.925,0-2.725-0.075-3.95-0.375c-0.325-0.075-0.525-0.225-0.525-0.5v-0.875
		c0-0.225,0.2-0.375,0.45-0.375c0.05,0,0.075,0,0.1,0c1.199,0.15,3.024,0.275,3.924,0.275c1.624,0,2.475-0.425,2.475-1.774
		c0-0.75-0.451-1.225-1.875-2.074l-2.525-1.5c-1.524-0.925-2.549-2-2.549-3.574c0-2.599,1.95-3.324,4.523-3.324
		c1.4,0,2.725,0.125,3.9,0.325c0.324,0.05,0.475,0.225,0.475,0.5v0.825c0,0.3-0.176,0.425-0.426,0.425c-0.024,0-0.049,0-0.074,0
		c-0.875-0.075-2.475-0.2-3.875-0.2c-1.399,0-2.324,0.175-2.324,1.449c0,0.75,0.575,1.225,1.725,1.9l2.474,1.475
		c2.074,1.225,2.75,2.299,2.75,3.774C92.266,17.913,90.391,18.988,87.592,18.988z"/>
	<path fill="#FFFFFF" d="M104.64,18.813h-1.249c-0.275,0-0.476-0.225-0.476-0.5v-0.475c-1.374,0.774-2.499,1.149-3.974,1.149
		c-3,0-4.35-1.875-4.35-5.199V5.566c0-0.275,0.225-0.5,0.5-0.5h1.199c0.275,0,0.5,0.225,0.5,0.5v8.223
		c0,2.524,0.851,3.299,2.75,3.299c1.05,0,2.225-0.4,3.374-0.975V5.566c0-0.25,0.226-0.5,0.5-0.5h1.225c0.25,0,0.476,0.225,0.476,0.5
		v12.747C105.115,18.588,104.914,18.813,104.64,18.813z"/>
	<path fill="#FFFFFF" d="M111.916,18.988c-0.925,0-2.725-0.075-3.949-0.375c-0.324-0.075-0.525-0.225-0.525-0.5v-0.875
		c0-0.225,0.201-0.375,0.451-0.375c0.049,0,0.074,0,0.1,0c1.199,0.15,3.023,0.275,3.924,0.275c1.625,0,2.475-0.425,2.475-1.774
		c0-0.75-0.45-1.225-1.875-2.074l-2.523-1.5c-1.525-0.925-2.551-2-2.551-3.574c0-2.599,1.95-3.324,4.524-3.324
		c1.399,0,2.725,0.125,3.899,0.325c0.324,0.05,0.475,0.225,0.475,0.5v0.825c0,0.3-0.175,0.425-0.425,0.425c-0.024,0-0.05,0-0.075,0
		c-0.875-0.075-2.475-0.2-3.874-0.2s-2.324,0.175-2.324,1.449c0,0.75,0.575,1.225,1.725,1.9l2.474,1.475
		c2.075,1.225,2.75,2.299,2.75,3.774C116.59,17.913,114.715,18.988,111.916,18.988z"/>
	<path fill="#FFFFFF" d="M124.041,18.988c-1.5,0-3.05-0.125-4.6-0.425c-0.449-0.075-0.524-0.225-0.524-0.575V0.493
		c0-0.25,0.175-0.475,0.45-0.475h1.274c0.25,0,0.475,0.2,0.475,0.475v4.648c0.95-0.175,2.124-0.25,2.925-0.25
		c3.623,0,5.448,2.199,5.448,6.124v1.799C129.489,16.563,127.789,18.988,124.041,18.988z M127.29,11.015
		c0-2.675-0.8-4.199-3.249-4.199c-0.775,0-2.1,0.025-2.925,0.175v9.923c0.851,0.075,2.075,0.15,2.925,0.15
		c2.475,0,3.249-1.525,3.249-4.249V11.015z"/>
	<path fill="#FFFFFF" d="M140.889,18.813h-1.149c-0.274,0-0.5-0.225-0.5-0.5v-0.55c-1.2,0.7-2.449,1.225-3.849,1.225
		c-2.125,0-4.074-0.925-4.074-4.049v-0.3c0-2.7,1.574-4.049,6.023-4.049h1.85v-1c0-2.1-0.725-2.824-2.674-2.824
		c-1.625,0-2.824,0.1-3.824,0.2c-0.051,0-0.075,0-0.125,0c-0.225,0-0.45-0.075-0.45-0.4V5.691c0-0.275,0.175-0.425,0.524-0.475
		c1.025-0.175,2.175-0.325,3.875-0.325c3.474,0,4.873,1.75,4.873,4.699v8.723C141.389,18.588,141.164,18.813,140.889,18.813z
		 M139.189,12.165h-1.85c-3.023,0-3.824,0.675-3.824,2.449v0.3c0,1.799,0.85,2.274,2.3,2.274c1.149,0,2.175-0.35,3.374-1V12.165z"/>
	<path fill="#FFFFFF" d="M148.19,18.988c-0.925,0-2.724-0.075-3.949-0.375c-0.325-0.075-0.524-0.225-0.524-0.5v-0.875
		c0-0.225,0.199-0.375,0.449-0.375c0.051,0,0.075,0,0.1,0c1.201,0.15,3.025,0.275,3.925,0.275c1.624,0,2.474-0.425,2.474-1.774
		c0-0.75-0.449-1.225-1.874-2.074l-2.524-1.5c-1.524-0.925-2.549-2-2.549-3.574c0-2.599,1.949-3.324,4.523-3.324
		c1.4,0,2.725,0.125,3.899,0.325c0.325,0.05,0.475,0.225,0.475,0.5v0.825c0,0.3-0.175,0.425-0.425,0.425c-0.025,0-0.05,0-0.075,0
		c-0.874-0.075-2.474-0.2-3.874-0.2c-1.399,0-2.324,0.175-2.324,1.449c0,0.75,0.574,1.225,1.725,1.9l2.475,1.475
		c2.074,1.225,2.749,2.299,2.749,3.774C152.864,17.913,150.99,18.988,148.19,18.988z"/>
	<path fill="#FFFFFF" d="M165.314,12.64h-8.373v0.35c0,2.975,1.174,4.074,3.474,4.074c1.45,0,3.3-0.1,4.448-0.275
		c0.051,0,0.076,0,0.125,0c0.201,0,0.4,0.1,0.4,0.35v0.85c0,0.325-0.1,0.5-0.5,0.575c-1.424,0.275-2.799,0.425-4.474,0.425
		c-2.874,0-5.674-1.35-5.674-5.999v-2.25c0-3.574,1.975-5.848,5.549-5.848c3.649,0,5.499,2.299,5.499,5.848v1.35
		C165.789,12.415,165.613,12.64,165.314,12.64z M163.564,10.74c0-2.824-1.074-3.924-3.274-3.924c-2.149,0-3.349,1.225-3.349,3.924
		v0.225h6.623V10.74z"/>
	<path fill="#FFFFFF" d="M178.188,18.813h-1.2c-0.274,0-0.5-0.225-0.5-0.5V10.09c0-2.524-0.85-3.299-2.748-3.299
		c-1.051,0-2.225,0.4-3.375,0.975v10.547c0,0.25-0.225,0.5-0.5,0.5h-1.225c-0.25,0-0.475-0.225-0.475-0.5V5.566
		c0-0.275,0.199-0.5,0.475-0.5h1.25c0.275,0,0.475,0.225,0.475,0.5v0.475c1.375-0.775,2.5-1.149,3.975-1.149
		c2.999,0,4.349,1.875,4.349,5.199v8.223C178.688,18.588,178.463,18.813,178.188,18.813z"/>
</g>
</svg>
