<?xml version="1.0" encoding="utf-8"?>
<!DOCTYPE svg PUBLIC "-//W3C//DTD SVG 1.1//EN" "http://www.w3.org/Graphics/SVG/1.1/DTD/svg11.dtd">
<svg version="1.1" xmlns="http://www.w3.org/2000/svg" xmlns:xlink="http://www.w3.org/1999/xlink" x="0px" y="0px"
	 width="174px" height="52px" viewBox="0 0 173.583 52.281" enable-background="new 0 0 173.583 52.281"
	 xml:space="preserve">
<g>
	<path fill-rule="evenodd" clip-rule="evenodd" fill="#FFFFFF" d="M1.97,19.131h4.88c4.1,0,5.14-2.33,5.14-5.21v-8.43
		c0-2.88-1.04-5.21-5.14-5.21H1.97V19.131z M4.98,1.941h1.61c1.61,0,2.4,0.8,2.4,3.29v8.95c0,2.49-0.8,3.29-2.4,3.29H4.98V1.941z
		 M31.02,0.281v14.24c0,1.79-0.34,2.98-2,2.98c-1.67,0-2.01-1.19-2.01-2.98V0.281H24v15.18c0,1.79,1.52,3.67,4.15,3.67h1.98
		c2.44,0,3.9-1.88,3.9-3.67V0.281H31.02z M22.78,0.281h-9.57v1.78h3.13v17.08h3.31V2.061h3.13V0.281z"/>
	<path fill-rule="evenodd" clip-rule="evenodd" fill="#FFFFFF" d="M36,28.591l-7.66,3.99c-9.92-3.83-10.76-3.83-20.68,0L0,28.591
		l7.66-3.98c9.92,3.82,10.76,3.82,20.68,0L36,28.591z M36,38.441l-7.66,3.99c-9.92-3.83-10.76-3.83-20.68,0L0,38.441l7.66-3.98
		c9.92,3.82,10.76,3.82,20.68,0L36,38.441z M36,48.291l-7.66,3.99c-9.92-3.82-10.76-3.82-20.68,0L0,48.291l7.66-3.98
		c9.92,3.82,10.76,3.82,20.68,0L36,48.291z"/>
</g>
<g>
	<path fill="#FFFFFF" d="M58.559,18.663c-1.05,0.2-2.024,0.325-4.149,0.325c-3.074,0-6.599-1.649-6.599-7.723V7.791
		c0-6.124,3.524-7.723,6.599-7.723c1.575,0,3.099,0.225,4.199,0.4c0.225,0.025,0.4,0.1,0.4,0.325v1.274c0,0.15-0.05,0.275-0.3,0.275
		c-0.025,0-0.05,0-0.075,0c-0.899-0.075-2.749-0.225-4.199-0.225c-2.449,0-4.349,1.424-4.349,5.673v3.474
		c0,4.199,1.9,5.674,4.349,5.674c1.425,0,3.224-0.125,4.124-0.2c0.025,0,0.075,0,0.1,0c0.275,0,0.4,0.125,0.4,0.4v1.025
		C59.059,18.463,58.834,18.613,58.559,18.663z"/>
	<path fill="#FFFFFF" d="M66.11,18.988c-3.674,0-5.549-2.424-5.549-6.098v-1.9c0-3.674,1.875-6.098,5.549-6.098
		s5.574,2.424,5.574,6.098v1.9C71.684,16.563,69.785,18.988,66.11,18.988z M69.484,10.99c0-2.549-1.024-4.174-3.374-4.174
		c-2.324,0-3.349,1.6-3.349,4.174v1.9c0,2.549,1,4.174,3.349,4.174c2.324,0,3.374-1.6,3.374-4.174V10.99z"/>
	<path fill="#FFFFFF" d="M84.059,18.813h-1.25c-0.275,0-0.475-0.225-0.475-0.5v-0.475c-1.375,0.774-2.5,1.149-3.974,1.149
		c-2.999,0-4.349-1.875-4.349-5.199V5.566c0-0.275,0.225-0.5,0.5-0.5h1.2c0.275,0,0.5,0.225,0.5,0.5v8.223
		c0,2.524,0.85,3.299,2.75,3.299c1.05,0,2.225-0.4,3.374-0.975V5.566c0-0.25,0.225-0.5,0.5-0.5h1.225c0.25,0,0.475,0.225,0.475,0.5
		v12.747C84.534,18.588,84.334,18.813,84.059,18.813z"/>
	<path fill="#FFFFFF" d="M92.96,6.791c-1.15,0-2.199,0.3-3.449,1.05v10.472c0,0.25-0.225,0.5-0.5,0.5h-1.225
		c-0.25,0-0.475-0.225-0.475-0.5V5.566c0-0.275,0.2-0.5,0.475-0.5h1.175c0.275,0,0.475,0.225,0.475,0.5v0.525
		c1.25-0.875,2.399-1.2,3.524-1.2c0.35,0,0.525,0.15,0.525,0.45v1.025C93.485,6.641,93.31,6.791,92.96,6.791z"/>
	<path fill="#FFFFFF" d="M99.26,18.988c-0.925,0-2.725-0.075-3.949-0.375c-0.325-0.075-0.525-0.225-0.525-0.5v-0.875
		c0-0.225,0.2-0.375,0.45-0.375c0.05,0,0.075,0,0.1,0c1.199,0.15,3.024,0.275,3.924,0.275c1.625,0,2.475-0.425,2.475-1.774
		c0-0.75-0.45-1.225-1.875-2.074l-2.524-1.5c-1.524-0.925-2.549-2-2.549-3.574c0-2.599,1.95-3.324,4.524-3.324
		c1.4,0,2.725,0.125,3.899,0.325c0.325,0.05,0.475,0.225,0.475,0.5v0.825c0,0.3-0.175,0.425-0.425,0.425c-0.025,0-0.05,0-0.075,0
		c-0.875-0.075-2.474-0.2-3.874-0.2c-1.399,0-2.324,0.175-2.324,1.449c0,0.75,0.575,1.225,1.725,1.9l2.474,1.475
		c2.075,1.225,2.75,2.299,2.75,3.774C103.934,17.913,102.06,18.988,99.26,18.988z"/>
	<path fill="#FFFFFF" d="M116.384,12.64h-8.373v0.35c0,2.975,1.175,4.074,3.474,4.074c1.45,0,3.299-0.1,4.449-0.275
		c0.05,0,0.075,0,0.125,0c0.2,0,0.4,0.1,0.4,0.35v0.85c0,0.325-0.1,0.5-0.5,0.575c-1.424,0.275-2.799,0.425-4.474,0.425
		c-2.875,0-5.674-1.35-5.674-5.999v-2.25c0-3.574,1.975-5.848,5.549-5.848c3.649,0,5.499,2.299,5.499,5.848v1.35
		C116.858,12.415,116.684,12.64,116.384,12.64z M114.634,10.74c0-2.824-1.075-3.924-3.274-3.924c-2.149,0-3.349,1.225-3.349,3.924
		v0.225h6.624V10.74z"/>
	<path fill="#FFFFFF" d="M129.934,18.988c-1.649,0-3.124-0.075-4.074-0.225c-0.575-0.075-0.825-0.3-0.825-0.925V1.192
		c0-0.575,0.275-0.875,0.8-0.925c0.825-0.1,2.349-0.2,3.974-0.2c3.974,0,7.323,1.05,7.323,4.824v0.4
		c0,1.849-0.975,3.274-2.674,3.924c1.725,0.6,2.774,2.125,2.774,4.049v0.425C137.232,17.888,133.833,18.988,129.934,18.988z
		 M134.858,4.892c0-2.399-2-2.899-5.049-2.899c-0.85,0-1.774,0.05-2.474,0.075v6.199h3.849c2.899,0,3.674-1.4,3.674-2.974V4.892z
		 M134.958,13.264c0-1.649-0.825-3.174-3.774-3.174h-3.849v6.873c0.825,0.025,1.725,0.1,2.599,0.1c3.1,0,5.024-0.675,5.024-3.374
		V13.264z"/>
	<path fill="#FFFFFF" d="M148.633,18.813h-1.15c-0.275,0-0.5-0.225-0.5-0.5v-0.55c-1.2,0.7-2.449,1.225-3.849,1.225
		c-2.125,0-4.074-0.925-4.074-4.049v-0.3c0-2.7,1.575-4.049,6.023-4.049h1.85v-1c0-2.1-0.725-2.824-2.674-2.824
		c-1.625,0-2.824,0.1-3.824,0.2c-0.05,0-0.075,0-0.125,0c-0.225,0-0.45-0.075-0.45-0.4V5.691c0-0.275,0.175-0.425,0.525-0.475
		c1.025-0.175,2.174-0.325,3.874-0.325c3.474,0,4.874,1.75,4.874,4.699v8.723C149.133,18.588,148.908,18.813,148.633,18.813z
		 M146.934,12.165h-1.85c-3.024,0-3.824,0.675-3.824,2.449v0.3c0,1.799,0.85,2.274,2.299,2.274c1.149,0,2.174-0.35,3.374-1V12.165z"
		/>
	<path fill="#FFFFFF" d="M155.935,18.988c-0.925,0-2.724-0.075-3.949-0.375c-0.325-0.075-0.525-0.225-0.525-0.5v-0.875
		c0-0.225,0.2-0.375,0.45-0.375c0.05,0,0.075,0,0.1,0c1.2,0.15,3.024,0.275,3.924,0.275c1.625,0,2.474-0.425,2.474-1.774
		c0-0.75-0.45-1.225-1.875-2.074l-2.524-1.5c-1.525-0.925-2.55-2-2.55-3.574c0-2.599,1.95-3.324,4.524-3.324
		c1.4,0,2.725,0.125,3.899,0.325c0.325,0.05,0.475,0.225,0.475,0.5v0.825c0,0.3-0.175,0.425-0.425,0.425c-0.025,0-0.05,0-0.075,0
		c-0.875-0.075-2.474-0.2-3.874-0.2c-1.399,0-2.324,0.175-2.324,1.449c0,0.75,0.575,1.225,1.725,1.9l2.474,1.475
		c2.075,1.225,2.75,2.299,2.75,3.774C160.608,17.913,158.734,18.988,155.935,18.988z"/>
	<path fill="#FFFFFF" d="M173.058,12.64h-8.373v0.35c0,2.975,1.175,4.074,3.474,4.074c1.45,0,3.299-0.1,4.449-0.275
		c0.05,0,0.075,0,0.125,0c0.2,0,0.4,0.1,0.4,0.35v0.85c0,0.325-0.1,0.5-0.5,0.575c-1.424,0.275-2.799,0.425-4.474,0.425
		c-2.875,0-5.674-1.35-5.674-5.999v-2.25c0-3.574,1.975-5.848,5.549-5.848c3.649,0,5.499,2.299,5.499,5.848v1.35
		C173.532,12.415,173.357,12.64,173.058,12.64z M171.308,10.74c0-2.824-1.075-3.924-3.274-3.924c-2.149,0-3.349,1.225-3.349,3.924
		v0.225h6.624V10.74z"/>
</g>
</svg>
