<?xml version="1.0" encoding="utf-8"?>
<!DOCTYPE svg PUBLIC "-//W3C//DTD SVG 1.1//EN" "http://www.w3.org/Graphics/SVG/1.1/DTD/svg11.dtd">
<svg version="1.1" xmlns="http://www.w3.org/2000/svg" xmlns:xlink="http://www.w3.org/1999/xlink" x="0px" y="0px"
	 width="324.84px" height="69.42px" viewBox="0 0 324.84 69.42" enable-background="new 0 0 324.84 69.42" xml:space="preserve">
<g>
	<path fill-rule="evenodd" clip-rule="evenodd" fill="#AD4635" d="M93.35,35.61c0-0.23-0.09-0.5-0.24-0.66L78.7,17.6L93.11,1.21
		c0.15-0.16,0.19-0.39,0.19-0.57C93.3,0.29,93.11,0,92.63,0h-3.44c-0.48,0-0.68,0.18-0.96,0.53l-13.8,16.15V1.11
		c0-0.64-0.37-1.11-0.8-1.11h-2.22c-0.47,0-0.8,0.53-0.8,1.11v33.94c0,0.61,0.33,1.11,0.75,1.11h2.32c0.46,0,0.75-0.55,0.75-1.11
		V18.99l13.51,16.62c0.29,0.39,0.62,0.55,1.05,0.55h3.74C93.16,36.16,93.35,35.88,93.35,35.61z"/>
	<path fill-rule="evenodd" clip-rule="evenodd" fill="#AD4635" d="M118.37,35.12V10.65c0-0.53-0.44-0.96-0.91-0.96h-2.35
		c-0.53,0-0.96,0.48-0.96,0.96V30.9c-2.2,1.1-4.45,1.87-6.47,1.87c-3.64,0-5.26-1.49-5.26-6.33V10.65c0-0.53-0.43-0.96-0.96-0.96
		h-2.3c-0.53,0-0.96,0.43-0.96,0.96v15.79c0,6.38,2.59,9.98,8.34,9.98c2.82,0,4.98-0.72,7.61-2.21v0.91c0,0.53,0.38,0.96,0.91,0.96
		h2.4C117.98,36.08,118.37,35.65,118.37,35.12z"/>
	<path fill-rule="evenodd" clip-rule="evenodd" fill="#AD4635" d="M135.78,12.18v-1.97c0-0.57-0.33-0.86-1-0.86
		c-2.16,0-4.36,0.62-6.76,2.3v-1c0-0.53-0.38-0.96-0.91-0.96h-2.25c-0.53,0-0.91,0.43-0.91,0.96v24.47c0,0.53,0.43,0.96,0.91,0.96
		h2.35c0.53,0,0.96-0.48,0.96-0.96V15.01c2.39-1.44,4.4-2.01,6.61-2.01C135.45,13,135.78,12.71,135.78,12.18z"/>
	<path fill-rule="evenodd" clip-rule="evenodd" fill="#AD4635" d="M155.68,29.21c0-2.79-1.18-4.83-4.93-7.14l-4.94-2.79
		c-2.29-1.28-3.44-2.18-3.44-3.6c0-2.41,1.85-2.74,4.64-2.74c2.8,0,5.84,0.24,7.36,0.38h0.13c0.44,0,0.74-0.24,0.74-0.81v-1.58
		c0-0.53-0.26-0.87-0.82-0.96c-2.05-0.39-4.61-0.63-7.41-0.63c-5.07,0-8.47,1.4-8.47,6.34c0,2.98,1.79,5.02,4.53,6.77l5.04,2.83
		c2.84,1.61,3.74,2.51,3.74,3.93c0,2.55-1.69,3.35-4.94,3.35c-1.79,0-5.32-0.23-7.41-0.52h-0.17c-0.44,0-0.79,0.29-0.79,0.72v1.69
		c0,0.54,0.35,0.83,0.92,0.97c2.13,0.58,5.61,0.73,7.45,0.73C152.42,36.15,155.68,34.07,155.68,29.21z"/>
	<path fill-rule="evenodd" clip-rule="evenodd" fill="#AD4635" d="M180.98,35.12V10.65c0-0.53-0.43-0.96-0.91-0.96h-2.35
		c-0.52,0-0.95,0.48-0.95,0.96V30.9c-2.21,1.1-4.46,1.87-6.47,1.87c-3.64,0-5.27-1.49-5.27-6.33V10.65c0-0.53-0.43-0.96-0.96-0.96
		h-2.3c-0.52,0-0.95,0.43-0.95,0.96v15.79c0,6.38,2.58,9.98,8.33,9.98c2.83,0,4.98-0.72,7.62-2.21v0.91c0,0.53,0.38,0.96,0.91,0.96
		h2.39C180.6,36.08,180.98,35.65,180.98,35.12z"/>
	<path fill-rule="evenodd" clip-rule="evenodd" fill="#AD4635" d="M203.19,29.21c0-2.79-1.18-4.83-4.93-7.14l-4.94-2.79
		c-2.29-1.28-3.44-2.18-3.44-3.6c0-2.41,1.85-2.74,4.64-2.74c2.8,0,5.84,0.24,7.36,0.38h0.13c0.44,0,0.74-0.24,0.74-0.81v-1.58
		c0-0.53-0.26-0.87-0.82-0.96c-2.05-0.39-4.61-0.63-7.41-0.63c-5.08,0-8.47,1.4-8.47,6.34c0,2.98,1.79,5.02,4.53,6.77l5.04,2.83
		c2.84,1.61,3.74,2.51,3.74,3.93c0,2.55-1.69,3.35-4.94,3.35c-1.8,0-5.32-0.23-7.41-0.52h-0.17c-0.44,0-0.79,0.29-0.79,0.72v1.69
		c0,0.54,0.35,0.83,0.92,0.97c2.13,0.58,5.6,0.73,7.45,0.73C199.93,36.15,203.19,34.07,203.19,29.21z"/>
	<path fill-rule="evenodd" clip-rule="evenodd" fill="#AD4635" d="M225.11,24.41c0,5.19-1.52,8.1-6.39,8.1
		c-1.67,0-4.08-0.15-5.75-0.29v-18.9c1.62-0.28,4.23-0.33,5.75-0.33c4.82,0,6.39,2.9,6.39,8V24.41z M228.94,24.41v-3.42
		c0-7.48-3.18-11.69-10.22-11.69c-1.57,0-3.88,0.14-5.75,0.48V1.11c0-0.64-0.39-1.11-0.83-1.11h-2.21c-0.48,0-0.79,0.53-0.79,1.11
		v33.17c0,0.68,0.13,0.96,0.92,1.11c2.69,0.57,5.71,0.81,8.66,0.81C225.98,36.2,228.94,31.56,228.94,24.41z"/>
	<path fill-rule="evenodd" clip-rule="evenodd" fill="#AD4635" d="M246.88,31.04c-2.3,1.25-4.27,1.92-6.47,1.92
		c-2.78,0-4.41-0.91-4.41-4.36v-0.58c0-3.41,1.54-4.7,7.33-4.7h3.55V31.04z M251.09,35.12V18.37c0-5.66-2.68-9.02-9.34-9.02
		c-3.26,0-5.46,0.29-7.42,0.62c-0.67,0.1-1.01,0.39-1.01,0.92v1.68c0,0.62,0.43,0.76,0.86,0.76h0.24c1.92-0.19,4.22-0.38,7.33-0.38
		c3.74,0,5.13,1.39,5.13,5.42v1.92h-3.55c-8.53,0-11.54,2.59-11.54,7.78v0.57c0,6,3.73,7.78,7.8,7.78c2.69,0,5.08-1.01,7.38-2.35
		v1.05c0,0.53,0.43,0.96,0.96,0.96h2.2C250.66,36.08,251.09,35.65,251.09,35.12z"/>
	<path fill-rule="evenodd" clip-rule="evenodd" fill="#AD4635" d="M273.78,29.21c0-2.79-1.17-4.83-4.92-7.14l-4.94-2.79
		c-2.29-1.28-3.44-2.18-3.44-3.6c0-2.41,1.85-2.74,4.64-2.74s5.84,0.24,7.36,0.38h0.13c0.44,0,0.74-0.24,0.74-0.81v-1.58
		c0-0.53-0.26-0.87-0.83-0.96c-2.04-0.39-4.61-0.63-7.4-0.63c-5.08,0-8.47,1.4-8.47,6.34c0,2.98,1.79,5.02,4.53,6.77l5.04,2.83
		c2.84,1.61,3.74,2.51,3.74,3.93c0,2.55-1.7,3.35-4.94,3.35c-1.8,0-5.32-0.23-7.41-0.52h-0.17c-0.44,0-0.79,0.29-0.79,0.72v1.69
		c0,0.54,0.35,0.83,0.92,0.97c2.13,0.58,5.6,0.73,7.45,0.73C270.52,36.15,273.78,34.07,273.78,29.21z"/>
	<path fill-rule="evenodd" clip-rule="evenodd" fill="#AD4635" d="M295.71,20.29h-13.47V19.9c0-4.75,2.44-6.91,6.81-6.91
		c4.47,0,6.66,1.94,6.66,6.91V20.29z M299.54,22.7v-2.8c0-6.25-3.19-10.6-10.49-10.6c-7.2,0-10.64,4.31-10.64,10.6v4.66
		c0,9.05,5.05,11.64,10.89,11.64c3.41,0,6.21-0.28,8.69-0.81c0.69-0.15,0.86-0.48,0.86-1.11v-1.63c0-0.48-0.35-0.68-0.69-0.68h-0.21
		c-1.98,0.34-5.7,0.54-8.65,0.54c-4.67,0-7.06-2.15-7.06-7.95v-0.69h16.48C299.23,23.87,299.54,23.39,299.54,22.7z"/>
	<path fill-rule="evenodd" clip-rule="evenodd" fill="#AD4635" d="M324.84,35.12V19.33c0-6.38-2.59-9.98-8.33-9.98
		c-2.83,0-4.99,0.72-7.62,2.21v-0.91c0-0.53-0.38-0.96-0.91-0.96h-2.4c-0.52,0-0.91,0.43-0.91,0.96v24.47
		c0,0.53,0.44,0.96,0.91,0.96h2.35c0.53,0,0.96-0.48,0.96-0.96V14.87c2.2-1.1,4.45-1.87,6.47-1.87c3.64,0,5.26,1.49,5.26,6.33v15.79
		c0,0.53,0.44,0.96,0.96,0.96h2.3C324.41,36.08,324.84,35.65,324.84,35.12z"/>
</g>
<g>
	<path fill-rule="evenodd" clip-rule="evenodd" fill="#AD4635" d="M2.62,25.21h6.5c5.44,0,6.84-3.11,6.84-6.95V7.03
		c0-3.84-1.4-6.95-6.84-6.95h-6.5V25.21z M6.62,2.29h2.15c2.14,0,3.19,1.07,3.19,4.39v11.93c0,3.33-1.07,4.39-3.19,4.39H6.62V2.29z
		 M41.28,0.08v18.99c0,2.38-0.46,3.98-2.67,3.98s-2.67-1.6-2.67-3.98V0.08h-4.01v20.25c0,2.38,2.03,4.88,5.53,4.88h2.63
		c3.25,0,5.2-2.5,5.2-4.88V0.08H41.28z M30.31,0.08H17.58v2.38h4.17v22.76h4.39V2.46h4.17V0.08z"/>
	<path fill-rule="evenodd" clip-rule="evenodd" fill="#AD4635" d="M47.9,37.83l-10.19,5.32c-13.2-5.1-14.31-5.1-27.52,0L0,37.83
		l10.19-5.31c13.21,5.1,14.32,5.1,27.52,0L47.9,37.83z M47.9,50.97l-10.19,5.31c-13.2-5.1-14.31-5.1-27.52,0L0,50.97l10.19-5.32
		c13.21,5.1,14.32,5.1,27.52,0L47.9,50.97z M47.9,64.1l-10.19,5.32c-13.2-5.1-14.31-5.1-27.52,0L0,64.1l10.19-5.31
		c13.21,5.1,14.32,5.1,27.52,0L47.9,64.1z"/>
</g>
</svg>
