<?xml version="1.0" encoding="utf-8"?>
<!DOCTYPE svg PUBLIC "-//W3C//DTD SVG 1.1//EN" "http://www.w3.org/Graphics/SVG/1.1/DTD/svg11.dtd">
<svg version="1.1" xmlns="http://www.w3.org/2000/svg" xmlns:xlink="http://www.w3.org/1999/xlink" x="0px" y="0px"
	 width="315px" height="70px" viewBox="0 0 315 69.754" enable-background="new 0 0 315 69.754" xml:space="preserve">
<g>
	<path fill-rule="evenodd" clip-rule="evenodd" fill="#AD4635" d="M2.62,25.544h6.5c5.44,0,6.84-3.11,6.84-6.95V7.364
		c0-3.84-1.4-6.95-6.84-6.95h-6.5V25.544z M6.62,2.624h2.15c2.14,0,3.19,1.07,3.19,4.39v11.93c0,3.33-1.07,4.39-3.19,4.39H6.62
		V2.624z M41.28,0.414v18.99c0,2.38-0.46,3.98-2.67,3.98s-2.67-1.6-2.67-3.98V0.414h-4.01v20.25c0,2.38,2.03,4.88,5.53,4.88h2.63
		c3.25,0,5.2-2.5,5.2-4.88V0.414H41.28z M30.31,0.414H17.58v2.38h4.17v22.76h4.39V2.794h4.17V0.414z"/>
	<path fill-rule="evenodd" clip-rule="evenodd" fill="#AD4635" d="M47.9,38.164l-10.19,5.32c-13.2-5.1-14.31-5.1-27.52,0L0,38.164
		l10.19-5.31c13.21,5.1,14.32,5.1,27.52,0L47.9,38.164z M47.9,51.304l-10.19,5.31c-13.2-5.1-14.31-5.1-27.52,0L0,51.304l10.19-5.32
		c13.21,5.1,14.32,5.1,27.52,0L47.9,51.304z M47.9,64.434l-10.19,5.32c-13.2-5.1-14.31-5.1-27.52,0L0,64.434l10.19-5.31
		c13.21,5.1,14.32,5.1,27.52,0L47.9,64.434z"/>
</g>
<g>
	<path fill="#AD4635" d="M90.689,35.751c-2.016,0.384-3.888,0.624-7.969,0.624c-5.904,0-12.673-3.168-12.673-14.833v-6.673
		c0-11.761,6.769-14.833,12.673-14.833c3.024,0,5.953,0.432,8.065,0.768c0.432,0.048,0.768,0.192,0.768,0.624v2.448
		c0,0.288-0.096,0.528-0.576,0.528c-0.048,0-0.096,0-0.144,0c-1.728-0.144-5.28-0.432-8.064-0.432
		c-4.705,0-8.353,2.736-8.353,10.897v6.673c0,8.064,3.648,10.897,8.353,10.897c2.736,0,6.192-0.24,7.92-0.384
		c0.048,0,0.144,0,0.192,0c0.528,0,0.768,0.24,0.768,0.768v1.968C91.649,35.367,91.217,35.655,90.689,35.751z"/>
	<path fill="#AD4635" d="M105.52,36.375c-7.057,0-10.657-4.656-10.657-11.713v-3.648c0-7.057,3.6-11.713,10.657-11.713
		s10.705,4.656,10.705,11.713v3.648C116.225,31.719,112.577,36.375,105.52,36.375z M112,21.014c0-4.896-1.968-8.017-6.48-8.017
		c-4.464,0-6.433,3.072-6.433,8.017v3.648c0,4.896,1.92,8.017,6.433,8.017c4.464,0,6.48-3.072,6.48-8.017V21.014z"/>
	<path fill="#AD4635" d="M140.321,36.039h-2.4c-0.528,0-0.912-0.432-0.912-0.96v-0.912c-2.64,1.488-4.8,2.208-7.632,2.208
		c-5.761,0-8.353-3.6-8.353-9.985V10.597c0-0.528,0.432-0.96,0.96-0.96h2.304c0.528,0,0.96,0.432,0.96,0.96V26.39
		c0,4.849,1.632,6.336,5.28,6.336c2.016,0,4.272-0.768,6.48-1.872V10.597c0-0.48,0.432-0.96,0.96-0.96h2.352
		c0.48,0,0.912,0.432,0.912,0.96v24.482C141.233,35.607,140.849,36.039,140.321,36.039z"/>
	<path fill="#AD4635" d="M157.744,12.949c-2.208,0-4.225,0.576-6.625,2.016v20.114c0,0.48-0.432,0.96-0.96,0.96h-2.353
		c-0.48,0-0.912-0.432-0.912-0.96V10.597c0-0.528,0.384-0.96,0.912-0.96h2.256c0.528,0,0.912,0.432,0.912,0.96v1.008
		c2.4-1.68,4.608-2.304,6.769-2.304c0.672,0,1.008,0.288,1.008,0.864v1.968C158.751,12.661,158.416,12.949,157.744,12.949z"/>
	<path fill="#AD4635" d="M170.175,36.375c-1.776,0-5.233-0.144-7.585-0.72c-0.624-0.144-1.008-0.432-1.008-0.96v-1.68
		c0-0.432,0.384-0.72,0.864-0.72c0.096,0,0.144,0,0.192,0c2.304,0.288,5.808,0.528,7.537,0.528c3.12,0,4.752-0.816,4.752-3.408
		c0-1.44-0.864-2.352-3.601-3.984l-4.849-2.88c-2.928-1.776-4.896-3.84-4.896-6.864c0-4.993,3.744-6.385,8.688-6.385
		c2.688,0,5.232,0.24,7.489,0.624c0.624,0.096,0.912,0.432,0.912,0.96v1.584c0,0.576-0.336,0.816-0.816,0.816
		c-0.048,0-0.096,0-0.144,0c-1.68-0.144-4.752-0.384-7.441-0.384c-2.688,0-4.464,0.336-4.464,2.785c0,1.44,1.104,2.352,3.312,3.648
		l4.752,2.833c3.984,2.352,5.28,4.416,5.28,7.249C179.152,34.311,175.552,36.375,170.175,36.375z"/>
	<path fill="#AD4635" d="M203.392,24.182H187.31v0.672c0,5.712,2.256,7.825,6.673,7.825c2.784,0,6.336-0.192,8.544-0.528
		c0.096,0,0.144,0,0.24,0c0.384,0,0.768,0.192,0.768,0.672v1.632c0,0.624-0.192,0.96-0.96,1.104
		c-2.736,0.528-5.376,0.816-8.592,0.816c-5.521,0-10.897-2.592-10.897-11.521v-4.32c0-6.865,3.792-11.233,10.657-11.233
		c7.009,0,10.561,4.417,10.561,11.233v2.592C204.304,23.75,203.968,24.182,203.392,24.182z M200.031,20.534
		c0-5.424-2.064-7.537-6.289-7.537c-4.128,0-6.433,2.352-6.433,7.537v0.432h12.721V20.534z"/>
	<path fill="#AD4635" d="M230.078,36.375c-3.168,0-6-0.144-7.825-0.432c-1.104-0.144-1.584-0.576-1.584-1.776V2.196
		c0-1.104,0.528-1.68,1.536-1.776c1.584-0.192,4.513-0.384,7.633-0.384c7.633,0,14.065,2.016,14.065,9.265v0.768
		c0,3.552-1.873,6.289-5.137,7.537c3.312,1.152,5.329,4.081,5.329,7.777v0.816C244.095,34.263,237.566,36.375,230.078,36.375z
		 M239.535,9.301c0-4.608-3.84-5.568-9.697-5.568c-1.632,0-3.408,0.096-4.752,0.144v11.905h7.393c5.569,0,7.057-2.688,7.057-5.712
		V9.301z M239.727,25.382c0-3.168-1.584-6.097-7.249-6.097h-7.393v13.201c1.584,0.048,3.312,0.192,4.993,0.192
		c5.952,0,9.648-1.296,9.648-6.48V25.382z"/>
	<path fill="#AD4635" d="M266.319,36.039h-2.208c-0.528,0-0.96-0.432-0.96-0.96v-1.056c-2.304,1.344-4.705,2.352-7.393,2.352
		c-4.081,0-7.825-1.776-7.825-7.776v-0.576c0-5.185,3.024-7.777,11.569-7.777h3.552v-1.92c0-4.033-1.392-5.425-5.136-5.425
		c-3.12,0-5.424,0.192-7.345,0.384c-0.096,0-0.144,0-0.24,0c-0.432,0-0.864-0.144-0.864-0.768v-1.68
		c0-0.528,0.336-0.816,1.008-0.912c1.968-0.336,4.176-0.624,7.44-0.624c6.672,0,9.361,3.36,9.361,9.025v16.753
		C267.279,35.607,266.847,36.039,266.319,36.039z M263.054,23.27h-3.552c-5.809,0-7.345,1.296-7.345,4.705v0.576
		c0,3.457,1.632,4.369,4.417,4.369c2.208,0,4.176-0.672,6.48-1.92V23.27z"/>
	<path fill="#AD4635" d="M280.67,36.375c-1.776,0-5.232-0.144-7.585-0.72c-0.624-0.144-1.008-0.432-1.008-0.96v-1.68
		c0-0.432,0.384-0.72,0.864-0.72c0.096,0,0.144,0,0.192,0c2.305,0.288,5.809,0.528,7.537,0.528c3.12,0,4.752-0.816,4.752-3.408
		c0-1.44-0.864-2.352-3.6-3.984l-4.848-2.88c-2.929-1.776-4.896-3.84-4.896-6.864c0-4.993,3.744-6.385,8.688-6.385
		c2.688,0,5.232,0.24,7.489,0.624c0.624,0.096,0.912,0.432,0.912,0.96v1.584c0,0.576-0.336,0.816-0.816,0.816
		c-0.048,0-0.096,0-0.144,0c-1.68-0.144-4.752-0.384-7.441-0.384c-2.688,0-4.464,0.336-4.464,2.785c0,1.44,1.104,2.352,3.312,3.648
		l4.752,2.833c3.984,2.352,5.28,4.416,5.28,7.249C289.646,34.311,286.046,36.375,280.67,36.375z"/>
	<path fill="#AD4635" d="M313.886,24.182h-16.082v0.672c0,5.712,2.256,7.825,6.673,7.825c2.784,0,6.336-0.192,8.544-0.528
		c0.096,0,0.144,0,0.24,0c0.384,0,0.768,0.192,0.768,0.672v1.632c0,0.624-0.192,0.96-0.96,1.104
		c-2.736,0.528-5.377,0.816-8.593,0.816c-5.521,0-10.897-2.592-10.897-11.521v-4.32c0-6.865,3.792-11.233,10.657-11.233
		c7.009,0,10.561,4.417,10.561,11.233v2.592C314.798,23.75,314.462,24.182,313.886,24.182z M310.526,20.534
		c0-5.424-2.064-7.537-6.289-7.537c-4.128,0-6.433,2.352-6.433,7.537v0.432h12.721V20.534z"/>
</g>
</svg>
