<?xml version="1.0" encoding="utf-8"?>
<!DOCTYPE svg PUBLIC "-//W3C//DTD SVG 1.1//EN" "http://www.w3.org/Graphics/SVG/1.1/DTD/svg11.dtd">
<svg version="1.1" xmlns="http://www.w3.org/2000/svg" xmlns:xlink="http://www.w3.org/1999/xlink" x="0px" y="0px"
	 width="325px" height="70px" viewBox="0 0 327.181 69.754" enable-background="new 0 0 327.181 69.754"
	 xml:space="preserve">
<g>
	<path fill-rule="evenodd" clip-rule="evenodd" fill="#AD4635" d="M2.62,25.544h6.5c5.44,0,6.84-3.11,6.84-6.95V7.364
		c0-3.84-1.4-6.95-6.84-6.95h-6.5V25.544z M6.62,2.624h2.15c2.14,0,3.19,1.07,3.19,4.39v11.93c0,3.33-1.07,4.39-3.19,4.39H6.62
		V2.624z M41.28,0.414v18.99c0,2.38-0.46,3.98-2.67,3.98s-2.67-1.6-2.67-3.98V0.414h-4.01v20.25c0,2.38,2.03,4.88,5.53,4.88h2.63
		c3.25,0,5.2-2.5,5.2-4.88V0.414H41.28z M30.31,0.414H17.58v2.38h4.17v22.76h4.39V2.794h4.17V0.414z"/>
	<path fill-rule="evenodd" clip-rule="evenodd" fill="#AD4635" d="M47.9,38.164l-10.19,5.32c-13.2-5.1-14.31-5.1-27.52,0L0,38.164
		l10.19-5.31c13.21,5.1,14.32,5.1,27.52,0L47.9,38.164z M47.9,51.304l-10.19,5.31c-13.2-5.1-14.31-5.1-27.52,0L0,51.304l10.19-5.32
		c13.21,5.1,14.32,5.1,27.52,0L47.9,51.304z M47.9,64.434l-10.19,5.32c-13.2-5.1-14.31-5.1-27.52,0L0,64.434l10.19-5.31
		c13.21,5.1,14.32,5.1,27.52,0L47.9,64.434z"/>
</g>
<g>
	<path fill="#AD4635" d="M93.284,36.039H89.54c-0.432,0-0.768-0.144-1.056-0.48L74.946,19.094v15.985c0,0.48-0.336,0.96-0.864,0.96
		h-2.64c-0.48,0-0.864-0.432-0.864-0.96V1.284c0-0.48,0.384-0.912,0.912-0.912h2.544c0.48,0,0.912,0.384,0.912,0.912V16.79
		L88.771,0.804c0.288-0.288,0.48-0.432,0.96-0.432h3.457c0.48,0,0.672,0.24,0.672,0.528c0,0.144-0.048,0.336-0.192,0.48
		L79.219,17.702l14.449,17.281c0.144,0.144,0.24,0.384,0.24,0.576C93.908,35.799,93.716,36.039,93.284,36.039z"/>
	<path fill="#AD4635" d="M117.667,36.039h-2.4c-0.528,0-0.912-0.432-0.912-0.96v-0.912c-2.64,1.488-4.8,2.208-7.632,2.208
		c-5.761,0-8.353-3.6-8.353-9.985V10.597c0-0.528,0.432-0.96,0.96-0.96h2.305c0.528,0,0.96,0.432,0.96,0.96V26.39
		c0,4.849,1.632,6.336,5.28,6.336c2.016,0,4.272-0.768,6.48-1.872V10.597c0-0.48,0.432-0.96,0.96-0.96h2.352
		c0.48,0,0.912,0.432,0.912,0.96v24.482C118.58,35.607,118.195,36.039,117.667,36.039z"/>
	<path fill="#AD4635" d="M135.09,12.949c-2.208,0-4.225,0.576-6.625,2.016v20.114c0,0.48-0.432,0.96-0.96,0.96h-2.352
		c-0.48,0-0.912-0.432-0.912-0.96V10.597c0-0.528,0.384-0.96,0.912-0.96h2.256c0.528,0,0.912,0.432,0.912,0.96v1.008
		c2.4-1.68,4.608-2.304,6.769-2.304c0.672,0,1.008,0.288,1.008,0.864v1.968C136.098,12.661,135.762,12.949,135.09,12.949z"/>
	<path fill="#AD4635" d="M147.522,36.375c-1.776,0-5.232-0.144-7.585-0.72c-0.624-0.144-1.008-0.432-1.008-0.96v-1.68
		c0-0.432,0.384-0.72,0.864-0.72c0.096,0,0.144,0,0.192,0c2.305,0.288,5.809,0.528,7.537,0.528c3.12,0,4.752-0.816,4.752-3.408
		c0-1.44-0.864-2.352-3.6-3.984l-4.848-2.88c-2.929-1.776-4.896-3.84-4.896-6.864c0-4.993,3.744-6.385,8.688-6.385
		c2.688,0,5.232,0.24,7.489,0.624c0.624,0.096,0.912,0.432,0.912,0.96v1.584c0,0.576-0.336,0.816-0.816,0.816
		c-0.048,0-0.096,0-0.144,0c-1.68-0.144-4.752-0.384-7.441-0.384c-2.688,0-4.464,0.336-4.464,2.785c0,1.44,1.104,2.352,3.312,3.648
		l4.752,2.833c3.984,2.352,5.28,4.416,5.28,7.249C156.499,34.311,152.898,36.375,147.522,36.375z"/>
	<path fill="#AD4635" d="M180.594,36.039h-2.4c-0.528,0-0.912-0.432-0.912-0.96v-0.912c-2.64,1.488-4.8,2.208-7.632,2.208
		c-5.761,0-8.353-3.6-8.353-9.985V10.597c0-0.528,0.432-0.96,0.96-0.96h2.305c0.528,0,0.96,0.432,0.96,0.96V26.39
		c0,4.849,1.632,6.336,5.28,6.336c2.016,0,4.272-0.768,6.48-1.872V10.597c0-0.48,0.432-0.96,0.96-0.96h2.352
		c0.48,0,0.912,0.432,0.912,0.96v24.482C181.506,35.607,181.122,36.039,180.594,36.039z"/>
	<path fill="#AD4635" d="M194.897,36.375c-1.776,0-5.232-0.144-7.585-0.72c-0.624-0.144-1.008-0.432-1.008-0.96v-1.68
		c0-0.432,0.384-0.72,0.864-0.72c0.096,0,0.144,0,0.192,0c2.305,0.288,5.809,0.528,7.537,0.528c3.12,0,4.752-0.816,4.752-3.408
		c0-1.44-0.864-2.352-3.6-3.984l-4.848-2.88c-2.929-1.776-4.896-3.84-4.896-6.864c0-4.993,3.744-6.385,8.688-6.385
		c2.688,0,5.232,0.24,7.489,0.624c0.624,0.096,0.912,0.432,0.912,0.96v1.584c0,0.576-0.336,0.816-0.816,0.816
		c-0.048,0-0.096,0-0.144,0c-1.68-0.144-4.752-0.384-7.441-0.384c-2.688,0-4.464,0.336-4.464,2.785c0,1.44,1.104,2.352,3.312,3.648
		l4.752,2.833c3.984,2.352,5.28,4.416,5.28,7.249C203.874,34.311,200.273,36.375,194.897,36.375z"/>
	<path fill="#AD4635" d="M218.512,36.375c-2.88,0-5.856-0.24-8.833-0.816c-0.864-0.144-1.008-0.432-1.008-1.104V0.852
		c0-0.48,0.336-0.912,0.864-0.912h2.448c0.48,0,0.912,0.384,0.912,0.912v8.929c1.824-0.336,4.08-0.48,5.616-0.48
		c6.961,0,10.465,4.224,10.465,11.761v3.457C228.977,31.719,225.713,36.375,218.512,36.375z M224.753,21.062
		c0-5.136-1.536-8.064-6.241-8.064c-1.488,0-4.032,0.048-5.616,0.336v19.058c1.632,0.144,3.984,0.288,5.616,0.288
		c4.752,0,6.241-2.928,6.241-8.161V21.062z"/>
	<path fill="#AD4635" d="M251.2,36.039h-2.208c-0.528,0-0.96-0.432-0.96-0.96v-1.056c-2.304,1.344-4.705,2.352-7.393,2.352
		c-4.081,0-7.825-1.776-7.825-7.776v-0.576c0-5.185,3.024-7.777,11.569-7.777h3.552v-1.92c0-4.033-1.392-5.425-5.136-5.425
		c-3.12,0-5.424,0.192-7.345,0.384c-0.096,0-0.144,0-0.24,0c-0.432,0-0.864-0.144-0.864-0.768v-1.68
		c0-0.528,0.336-0.816,1.008-0.912c1.968-0.336,4.176-0.624,7.44-0.624c6.672,0,9.361,3.36,9.361,9.025v16.753
		C252.16,35.607,251.728,36.039,251.2,36.039z M247.936,23.27h-3.552c-5.809,0-7.345,1.296-7.345,4.705v0.576
		c0,3.457,1.632,4.369,4.417,4.369c2.208,0,4.176-0.672,6.48-1.92V23.27z"/>
	<path fill="#AD4635" d="M265.551,36.375c-1.776,0-5.232-0.144-7.585-0.72c-0.624-0.144-1.008-0.432-1.008-0.96v-1.68
		c0-0.432,0.384-0.72,0.864-0.72c0.096,0,0.144,0,0.192,0c2.305,0.288,5.809,0.528,7.537,0.528c3.12,0,4.752-0.816,4.752-3.408
		c0-1.44-0.864-2.352-3.6-3.984l-4.848-2.88c-2.929-1.776-4.896-3.84-4.896-6.864c0-4.993,3.744-6.385,8.688-6.385
		c2.688,0,5.232,0.24,7.489,0.624c0.624,0.096,0.912,0.432,0.912,0.96v1.584c0,0.576-0.336,0.816-0.816,0.816
		c-0.048,0-0.096,0-0.144,0c-1.68-0.144-4.752-0.384-7.441-0.384c-2.688,0-4.464,0.336-4.464,2.785c0,1.44,1.104,2.352,3.312,3.648
		l4.752,2.833c3.984,2.352,5.28,4.416,5.28,7.249C274.528,34.311,270.928,36.375,265.551,36.375z"/>
	<path fill="#AD4635" d="M298.768,24.182h-16.082v0.672c0,5.712,2.256,7.825,6.673,7.825c2.784,0,6.336-0.192,8.544-0.528
		c0.096,0,0.144,0,0.24,0c0.384,0,0.768,0.192,0.768,0.672v1.632c0,0.624-0.192,0.96-0.96,1.104
		c-2.736,0.528-5.377,0.816-8.593,0.816c-5.521,0-10.897-2.592-10.897-11.521v-4.32c0-6.865,3.792-11.233,10.657-11.233
		c7.009,0,10.561,4.417,10.561,11.233v2.592C299.68,23.75,299.344,24.182,298.768,24.182z M295.407,20.534
		c0-5.424-2.064-7.537-6.289-7.537c-4.128,0-6.433,2.352-6.433,7.537v0.432h12.721V20.534z"/>
	<path fill="#AD4635" d="M323.823,36.039h-2.304c-0.528,0-0.96-0.432-0.96-0.96V19.286c0-4.849-1.632-6.336-5.28-6.336
		c-2.016,0-4.272,0.768-6.48,1.872v20.258c0,0.48-0.432,0.96-0.96,0.96h-2.352c-0.48,0-0.912-0.432-0.912-0.96V10.597
		c0-0.528,0.384-0.96,0.912-0.96h2.4c0.528,0,0.912,0.432,0.912,0.96v0.912c2.64-1.488,4.8-2.208,7.632-2.208
		c5.761,0,8.353,3.6,8.353,9.985v15.793C324.783,35.607,324.351,36.039,323.823,36.039z"/>
</g>
</svg>
