<?xml version="1.0" encoding="utf-8"?>
<!DOCTYPE svg PUBLIC "-//W3C//DTD SVG 1.1//EN" "http://www.w3.org/Graphics/SVG/1.1/DTD/svg11.dtd">
<svg version="1.1" xmlns="http://www.w3.org/2000/svg" xmlns:xlink="http://www.w3.org/1999/xlink" x="0px" y="0px"
	 width="13px" height="13px" viewBox="0 0 144.566 143.949" enable-background="new 0 0 144.566 143.949"
	 xml:space="preserve">
<path opacity="0.5" fill="#231F20" d="M144.567,129.516l-36.691-36.693c6.61-9.555,10.495-21.139,10.495-33.637
	C118.37,26.498,91.872,0,59.185,0C26.498,0,0,26.498,0,59.185s26.499,59.185,59.185,59.185c12.815,0,24.67-4.086,34.358-11.009
	l36.589,36.589L144.567,129.516z M59.185,97.956c-21.412,0-38.771-17.358-38.771-38.771c0-21.413,17.357-38.771,38.771-38.771
	c21.414,0,38.772,17.358,38.772,38.771C97.957,80.598,80.598,97.956,59.185,97.956z"/>
</svg>
